<svg width="1242" height="1242" viewBox="0 0 1242 1242" fill="none" xmlns="http://www.w3.org/2000/svg">
<circle cx="621" cy="621" r="621" fill="#6200EE"/>
<circle cx="621" cy="621" r="621" fill="url(#paint0_linear_829_273)"/>
<path d="M1094.06 899.554C1028.08 1030.75 930.308 1113.69 805.431 1144.59C680.505 1175.51 528.237 1154.4 353.216 1077.01C88.7916 924.299 -14.2953 608.163 136.683 346.662C212.218 215.831 344.976 110.446 492.03 66.5719C639.044 22.7099 800.262 40.338 932.944 155.375C1049.95 256.82 1121.75 370.014 1148.56 494.207C1175.37 618.393 1157.23 753.739 1094.06 899.554Z" stroke="white" stroke-width="3"/>
<path d="M258.232 964.769C159.231 876.559 123.202 760.428 139.015 632.628C154.834 504.77 222.556 365.215 331.134 230.426C428.738 132.848 538.928 91.5243 648.789 98.6353C758.704 105.75 868.486 161.362 965.154 258.03C1061.74 354.618 1122.71 495.23 1126.62 633.931C1130.52 772.59 1077.4 909.254 945.893 998.206C829.902 1076.66 714.238 1112.88 599.503 1107.23C484.775 1101.58 370.812 1054.07 258.232 964.769Z" stroke="white" stroke-width="3"/>
<path d="M383.863 950.638C218.002 806.835 238.402 595.551 328.3 388.031C375.076 295.044 470.628 236.267 577.813 218.503C684.977 200.742 803.588 224.016 896.313 294.916C993.46 389.649 1043.02 462.047 1055.05 533.846C1067.07 605.586 1041.69 677.088 987.931 770.225C914.355 854.859 810.34 940.835 701.185 985.19C592.013 1029.55 477.946 1032.21 383.863 950.638Z" stroke="white" stroke-width="3"/>
<path d="M421.033 825.605C356.787 768.353 330.281 679.454 339.035 590.014C347.787 500.595 391.772 410.82 468.254 351.92C564.572 294.696 638.825 288.969 694.645 302.514C750.482 316.063 788.111 348.944 811.147 369.52C875.851 443.306 918.644 542.77 923.876 638.209C929.107 733.64 896.796 824.923 811.432 882.663C736.03 933.664 675.082 948.297 614.799 935.883C554.392 923.443 494.406 883.809 421.033 825.605Z" stroke="white" stroke-width="3"/>
<path d="M651.689 457.042L651.714 457.06L651.739 457.077C699.413 488.919 745.047 546.374 765.638 603.358C775.93 631.841 779.922 660.086 774.897 684.892C769.883 709.641 755.879 731.063 729.957 745.997C685.794 771.438 642.985 794.609 604.558 801.948C585.38 805.61 567.382 805.309 550.899 799.435C534.43 793.566 519.343 782.089 506.048 763.177C487.724 737.112 473.475 716.411 463.457 698.591C453.443 680.775 447.728 665.955 446.376 651.658C443.68 623.135 458.295 596.143 492.809 551.02C505.938 536.975 517.471 520.391 528.583 504.412L528.746 504.178C539.955 488.06 550.726 472.598 562.366 460.736C573.997 448.883 586.345 440.784 600.656 439.167C614.952 437.551 631.528 442.369 651.689 457.042Z" stroke="white" stroke-width="3"/>
<defs>
<linearGradient id="paint0_linear_829_273" x1="621" y1="2484" x2="621" y2="-0.000108579" gradientUnits="userSpaceOnUse">
<stop stop-color="#FEDBD0"/>
<stop offset="1" stop-color="#FEDBD0" stop-opacity="0"/>
</linearGradient>
</defs>
</svg>
