<svg width="593" height="672" viewBox="0 0 593 672" fill="none" xmlns="http://www.w3.org/2000/svg">
<path fill-rule="evenodd" clip-rule="evenodd" d="M276.173 2.36864C202.863 -12.1657 127.543 42.5861 80.9667 101.036C39.0806 153.599 11.0611 227.362 3.65271 294.164C-2.04934 345.58 -0.0532598 393.901 2.75891 445.556C6.8014 519.808 0.815346 622.466 63.6881 662.176C128.248 702.951 199.847 595.189 276.173 592.976C348.438 590.881 413.288 678.225 479.891 650.107C544.898 622.664 557.924 535.276 575.017 466.815C591.065 402.536 604.279 331.884 574.062 272.925C545.359 216.922 468.809 191.003 422.225 148.693C366.237 97.842 350.363 17.0772 276.173 2.36864Z" fill="#6200EE"/>
<path fill-rule="evenodd" clip-rule="evenodd" d="M276.173 2.36864C202.863 -12.1657 127.543 42.5861 80.9667 101.036C39.0806 153.599 11.0611 227.362 3.65271 294.164C-2.04934 345.58 -0.0532598 393.901 2.75891 445.556C6.8014 519.808 0.815346 622.466 63.6881 662.176C128.248 702.951 199.847 595.189 276.173 592.976C348.438 590.881 413.288 678.225 479.891 650.107C544.898 622.664 557.924 535.276 575.017 466.815C591.065 402.536 604.279 331.884 574.062 272.925C545.359 216.922 468.809 191.003 422.225 148.693C366.237 97.842 350.363 17.0772 276.173 2.36864Z" fill="url(#paint0_linear_18_116)"/>
<defs>
<linearGradient id="paint0_linear_18_116" x1="309.241" y1="1342.76" x2="309.241" y2="-5.91118e-05" gradientUnits="userSpaceOnUse">
<stop stop-color="#FEDBD0"/>
<stop offset="1" stop-color="#FEDBD0" stop-opacity="0"/>
</linearGradient>
</defs>
</svg>
