<svg width="300" height="341" viewBox="0 0 300 341" fill="none" xmlns="http://www.w3.org/2000/svg">
<path fill-rule="evenodd" clip-rule="evenodd" d="M140.557 1.20271C103.246 -6.17732 64.9125 21.6237 41.2078 51.3022C19.8902 77.9921 5.62988 115.446 1.85941 149.366C-1.04263 175.473 -0.0267334 200.009 1.40451 226.237C3.46191 263.94 0.415344 316.066 32.414 336.228C65.2715 356.932 101.711 302.215 140.557 301.091C177.335 300.027 210.34 344.378 244.238 330.101C277.322 316.166 283.952 271.793 292.651 237.031C300.819 204.393 307.544 168.519 292.165 138.581C277.557 110.145 238.597 96.9841 214.889 75.5006C186.394 49.6806 178.315 8.6712 140.557 1.20271Z" fill="#6200EE"/>
<path fill-rule="evenodd" clip-rule="evenodd" d="M140.557 1.20271C103.246 -6.17732 64.9125 21.6237 41.2078 51.3022C19.8902 77.9921 5.62988 115.446 1.85941 149.366C-1.04263 175.473 -0.0267334 200.009 1.40451 226.237C3.46191 263.94 0.415344 316.066 32.414 336.228C65.2715 356.932 101.711 302.215 140.557 301.091C177.335 300.027 210.34 344.378 244.238 330.101C277.322 316.166 283.952 271.793 292.651 237.031C300.819 204.393 307.544 168.519 292.165 138.581C277.557 110.145 238.597 96.9841 214.889 75.5006C186.394 49.6806 178.315 8.6712 140.557 1.20271Z" fill="url(#paint0_linear_65_56)"/>
<defs>
<linearGradient id="paint0_linear_65_56" x1="157.387" y1="681.805" x2="157.387" y2="-3.00148e-05" gradientUnits="userSpaceOnUse">
<stop stop-color="#FEDBD0"/>
<stop offset="1" stop-color="#FEDBD0" stop-opacity="0"/>
</linearGradient>
</defs>
</svg>
